<svg width="455" height="195" viewBox="0 0 455 195" fill="none" xmlns="http://www.w3.org/2000/svg">
<rect x="4" width="447" height="195" fill="#F5DF60"/>
<path d="M86.1622 184C85.8795 184 85.7382 183.859 85.7382 183.576V173.32C85.7382 173.043 85.8795 172.904 86.1622 172.904C86.4395 172.904 86.5782 173.043 86.5782 173.32V177.552C86.8182 177.184 87.1595 176.904 87.6022 176.712C88.0502 176.52 88.6262 176.424 89.3302 176.424H89.9382C90.9355 176.424 91.6635 176.656 92.1222 177.12C92.5862 177.584 92.8182 178.315 92.8182 179.312V181.112C92.8182 182.109 92.5862 182.84 92.1222 183.304C91.6635 183.768 90.9355 184 89.9382 184H89.3302C88.6262 184 88.0502 183.907 87.6022 183.72C87.1595 183.528 86.8182 183.245 86.5782 182.872V183.576C86.5782 183.859 86.4395 184 86.1622 184ZM89.3302 183.16H89.9382C90.7009 183.16 91.2315 183.011 91.5302 182.712C91.8289 182.408 91.9782 181.875 91.9782 181.112V179.312C91.9782 178.549 91.8262 178.019 91.5222 177.72C91.2235 177.416 90.6955 177.264 89.9382 177.264H89.3302C88.4982 177.264 87.8315 177.395 87.3302 177.656C86.8289 177.917 86.5782 178.315 86.5782 178.848V181.608C86.5889 182.125 86.8449 182.515 87.3462 182.776C87.8475 183.032 88.5089 183.16 89.3302 183.16ZM97.7976 184C97.0402 184 96.4829 183.824 96.1256 183.472C95.7736 183.12 95.5976 182.568 95.5976 181.816V173.32C95.5976 173.043 95.7389 172.904 96.0216 172.904C96.2989 172.904 96.4376 173.043 96.4376 173.32V181.816C96.4376 182.333 96.5336 182.688 96.7256 182.88C96.9176 183.067 97.2722 183.16 97.7896 183.16C98.0776 183.16 98.2216 183.299 98.2216 183.576C98.2269 183.859 98.0856 184 97.7976 184ZM100.494 174.984C100.126 174.984 99.9418 174.795 99.9418 174.416V174.056C99.9418 173.688 100.126 173.504 100.494 173.504H100.854C101.211 173.504 101.39 173.688 101.39 174.056V174.416C101.39 174.795 101.211 174.984 100.854 174.984H100.494ZM100.678 184C100.395 184 100.254 183.859 100.254 183.576V176.856C100.254 176.579 100.395 176.44 100.678 176.44C100.955 176.44 101.094 176.579 101.094 176.856V183.576C101.094 183.859 100.955 184 100.678 184ZM104.506 184C104.223 184 104.082 183.859 104.082 183.576V176.856C104.082 176.579 104.223 176.44 104.506 176.44C104.783 176.44 104.922 176.579 104.922 176.856V177.624C105.429 176.835 106.346 176.44 107.674 176.44H108.122C109.119 176.44 109.847 176.672 110.306 177.136C110.77 177.595 111.002 178.323 111.002 179.32V183.576C111.002 183.859 110.863 184 110.586 184C110.303 184 110.162 183.859 110.162 183.576V179.32C110.162 178.557 110.01 178.027 109.706 177.728C109.407 177.429 108.879 177.28 108.122 177.28H107.674C106.847 177.28 106.197 177.411 105.722 177.672C105.247 177.933 104.981 178.341 104.922 178.896V183.576C104.922 183.859 104.783 184 104.506 184ZM114.272 184C113.989 184 113.848 183.859 113.848 183.576V173.32C113.848 173.043 113.989 172.904 114.272 172.904C114.549 172.904 114.688 173.043 114.688 173.32V179.968L118.752 176.48C118.954 176.299 119.149 176.312 119.336 176.52C119.517 176.728 119.504 176.925 119.296 177.112L116.352 179.648L119.552 183.28C119.738 183.488 119.725 183.685 119.512 183.872C119.309 184.053 119.114 184.04 118.928 183.832L115.704 180.2L114.688 181.072V183.576C114.688 183.859 114.549 184 114.272 184ZM123.408 187.2C122.709 187.2 122.192 187.032 121.856 186.696C121.525 186.36 121.36 185.837 121.36 185.128C121.36 184.851 121.498 184.712 121.776 184.712C122.058 184.712 122.2 184.851 122.2 185.128C122.2 185.608 122.285 185.933 122.456 186.104C122.626 186.275 122.944 186.36 123.408 186.36H126.176C126.645 186.36 126.965 186.275 127.136 186.104C127.306 185.933 127.392 185.608 127.392 185.128V182.928C127.088 183.328 126.706 183.608 126.248 183.768C125.789 183.928 125.253 184.008 124.64 184.008H124.192C123.21 184.008 122.493 183.781 122.04 183.328C121.586 182.875 121.36 182.163 121.36 181.192V176.848C121.36 176.565 121.498 176.424 121.776 176.424C122.058 176.424 122.2 176.565 122.2 176.848V181.192C122.2 181.933 122.344 182.448 122.632 182.736C122.925 183.024 123.445 183.168 124.192 183.168H124.64C125.573 183.168 126.264 183.005 126.712 182.68C127.165 182.349 127.392 181.853 127.392 181.192V176.848C127.392 176.565 127.53 176.424 127.808 176.424C128.09 176.424 128.232 176.565 128.232 176.848V185.128C128.232 185.837 128.064 186.36 127.728 186.696C127.397 187.032 126.88 187.2 126.176 187.2H123.408ZM135.662 184C135.38 184 135.238 183.859 135.238 183.576V173.32C135.238 173.043 135.38 172.904 135.662 172.904C135.94 172.904 136.078 173.043 136.078 173.32V177.552C136.318 177.184 136.66 176.904 137.102 176.712C137.55 176.52 138.126 176.424 138.83 176.424H139.438C140.436 176.424 141.164 176.656 141.622 177.12C142.086 177.584 142.318 178.315 142.318 179.312V181.112C142.318 182.109 142.086 182.84 141.622 183.304C141.164 183.768 140.436 184 139.438 184H138.83C138.126 184 137.55 183.907 137.102 183.72C136.66 183.528 136.318 183.245 136.078 182.872V183.576C136.078 183.859 135.94 184 135.662 184ZM138.83 183.16H139.438C140.201 183.16 140.732 183.011 141.03 182.712C141.329 182.408 141.478 181.875 141.478 181.112V179.312C141.478 178.549 141.326 178.019 141.022 177.72C140.724 177.416 140.196 177.264 139.438 177.264H138.83C137.998 177.264 137.332 177.395 136.83 177.656C136.329 177.917 136.078 178.315 136.078 178.848V181.608C136.089 182.125 136.345 182.515 136.846 182.776C137.348 183.032 138.009 183.16 138.83 183.16ZM147.298 184C146.54 184 145.983 183.824 145.626 183.472C145.274 183.12 145.098 182.568 145.098 181.816V173.32C145.098 173.043 145.239 172.904 145.522 172.904C145.799 172.904 145.938 173.043 145.938 173.32V181.816C145.938 182.333 146.034 182.688 146.226 182.88C146.418 183.067 146.772 183.16 147.29 183.16C147.578 183.16 147.722 183.299 147.722 183.576C147.727 183.859 147.586 184 147.298 184ZM149.994 174.984C149.626 174.984 149.442 174.795 149.442 174.416V174.056C149.442 173.688 149.626 173.504 149.994 173.504H150.354C150.711 173.504 150.89 173.688 150.89 174.056V174.416C150.89 174.795 150.711 174.984 150.354 174.984H149.994ZM150.178 184C149.895 184 149.754 183.859 149.754 183.576V176.856C149.754 176.579 149.895 176.44 150.178 176.44C150.455 176.44 150.594 176.579 150.594 176.856V183.576C150.594 183.859 150.455 184 150.178 184ZM154.006 184C153.723 184 153.582 183.859 153.582 183.576V176.856C153.582 176.579 153.723 176.44 154.006 176.44C154.283 176.44 154.422 176.579 154.422 176.856V177.624C154.929 176.835 155.846 176.44 157.174 176.44H157.622C158.619 176.44 159.347 176.672 159.806 177.136C160.27 177.595 160.502 178.323 160.502 179.32V183.576C160.502 183.859 160.363 184 160.086 184C159.803 184 159.662 183.859 159.662 183.576V179.32C159.662 178.557 159.51 178.027 159.206 177.728C158.907 177.429 158.379 177.28 157.622 177.28H157.174C156.347 177.28 155.697 177.411 155.222 177.672C154.747 177.933 154.481 178.341 154.422 178.896V183.576C154.422 183.859 154.283 184 154.006 184ZM163.772 184C163.489 184 163.348 183.859 163.348 183.576V173.32C163.348 173.043 163.489 172.904 163.772 172.904C164.049 172.904 164.188 173.043 164.188 173.32V179.968L168.252 176.48C168.454 176.299 168.649 176.312 168.836 176.52C169.017 176.728 169.004 176.925 168.796 177.112L165.852 179.648L169.052 183.28C169.238 183.488 169.225 183.685 169.012 183.872C168.809 184.053 168.614 184.04 168.428 183.832L165.204 180.2L164.188 181.072V183.576C164.188 183.859 164.049 184 163.772 184ZM172.908 187.2C172.209 187.2 171.692 187.032 171.356 186.696C171.025 186.36 170.86 185.837 170.86 185.128C170.86 184.851 170.998 184.712 171.276 184.712C171.558 184.712 171.7 184.851 171.7 185.128C171.7 185.608 171.785 185.933 171.956 186.104C172.126 186.275 172.444 186.36 172.908 186.36H175.676C176.145 186.36 176.465 186.275 176.636 186.104C176.806 185.933 176.892 185.608 176.892 185.128V182.928C176.588 183.328 176.206 183.608 175.748 183.768C175.289 183.928 174.753 184.008 174.14 184.008H173.692C172.71 184.008 171.993 183.781 171.54 183.328C171.086 182.875 170.86 182.163 170.86 181.192V176.848C170.86 176.565 170.998 176.424 171.276 176.424C171.558 176.424 171.7 176.565 171.7 176.848V181.192C171.7 181.933 171.844 182.448 172.132 182.736C172.425 183.024 172.945 183.168 173.692 183.168H174.14C175.073 183.168 175.764 183.005 176.212 182.68C176.665 182.349 176.892 181.853 176.892 181.192V176.848C176.892 176.565 177.03 176.424 177.308 176.424C177.59 176.424 177.732 176.565 177.732 176.848V185.128C177.732 185.837 177.564 186.36 177.228 186.696C176.897 187.032 176.38 187.2 175.676 187.2H172.908ZM185.162 184C184.88 184 184.738 183.859 184.738 183.576V173.32C184.738 173.043 184.88 172.904 185.162 172.904C185.44 172.904 185.578 173.043 185.578 173.32V177.624C186.085 176.835 187.002 176.44 188.33 176.44H188.778C189.776 176.44 190.504 176.672 190.962 177.136C191.426 177.595 191.658 178.323 191.658 179.32V183.576C191.658 183.859 191.52 184 191.242 184C190.96 184 190.818 183.859 190.818 183.576V179.32C190.818 178.557 190.666 178.027 190.362 177.728C190.064 177.429 189.536 177.28 188.778 177.28H188.33C187.504 177.28 186.853 177.411 186.378 177.672C185.904 177.933 185.637 178.341 185.578 178.896V183.576C185.578 183.859 185.44 184 185.162 184ZM202.976 176.424C203.834 176.424 204.448 176.643 204.816 177.08C205.189 177.517 205.376 178.24 205.376 179.248V183.592C205.376 183.869 205.237 184.008 204.96 184.008C204.677 184.008 204.536 183.869 204.536 183.592V179.248C204.536 178.544 204.416 178.037 204.176 177.728C203.936 177.419 203.536 177.264 202.976 177.264H202.312C201.613 177.264 201.112 177.419 200.808 177.728C200.509 178.037 200.36 178.544 200.36 179.248V183.592C200.36 183.869 200.221 184.008 199.944 184.008C199.661 184.008 199.52 183.869 199.52 183.592V179.248C199.52 178.544 199.4 178.037 199.16 177.728C198.92 177.419 198.52 177.264 197.96 177.264H197.296C196.597 177.264 196.096 177.419 195.792 177.728C195.493 178.037 195.344 178.544 195.344 179.248V183.592C195.344 183.869 195.205 184.008 194.928 184.008C194.645 184.008 194.504 183.869 194.504 183.592V176.856C194.504 176.579 194.645 176.44 194.928 176.44C195.205 176.44 195.344 176.579 195.344 176.856V177.48C195.578 177.101 195.856 176.832 196.176 176.672C196.501 176.507 196.912 176.424 197.408 176.424H197.96C198.52 176.424 198.968 176.523 199.304 176.72C199.645 176.912 199.914 177.229 200.112 177.672C200.346 177.229 200.634 176.912 200.976 176.72C201.317 176.523 201.762 176.424 202.312 176.424H202.976ZM216.695 176.424C217.553 176.424 218.167 176.643 218.535 177.08C218.908 177.517 219.095 178.24 219.095 179.248V183.592C219.095 183.869 218.956 184.008 218.679 184.008C218.396 184.008 218.255 183.869 218.255 183.592V179.248C218.255 178.544 218.135 178.037 217.895 177.728C217.655 177.419 217.255 177.264 216.695 177.264H216.031C215.332 177.264 214.831 177.419 214.527 177.728C214.228 178.037 214.079 178.544 214.079 179.248V183.592C214.079 183.869 213.94 184.008 213.663 184.008C213.38 184.008 213.239 183.869 213.239 183.592V179.248C213.239 178.544 213.119 178.037 212.879 177.728C212.639 177.419 212.239 177.264 211.679 177.264H211.015C210.316 177.264 209.815 177.419 209.511 177.728C209.212 178.037 209.063 178.544 209.063 179.248V183.592C209.063 183.869 208.924 184.008 208.647 184.008C208.364 184.008 208.223 183.869 208.223 183.592V176.856C208.223 176.579 208.364 176.44 208.647 176.44C208.924 176.44 209.063 176.579 209.063 176.856V177.48C209.297 177.101 209.575 176.832 209.895 176.672C210.22 176.507 210.631 176.424 211.127 176.424H211.679C212.239 176.424 212.687 176.523 213.023 176.72C213.364 176.912 213.633 177.229 213.831 177.672C214.065 177.229 214.353 176.912 214.695 176.72C215.036 176.523 215.481 176.424 216.031 176.424H216.695ZM230.413 176.424C231.272 176.424 231.885 176.643 232.253 177.08C232.627 177.517 232.813 178.24 232.813 179.248V183.592C232.813 183.869 232.675 184.008 232.397 184.008C232.115 184.008 231.973 183.869 231.973 183.592V179.248C231.973 178.544 231.853 178.037 231.613 177.728C231.373 177.419 230.973 177.264 230.413 177.264H229.749C229.051 177.264 228.549 177.419 228.245 177.728C227.947 178.037 227.797 178.544 227.797 179.248V183.592C227.797 183.869 227.659 184.008 227.381 184.008C227.099 184.008 226.957 183.869 226.957 183.592V179.248C226.957 178.544 226.837 178.037 226.597 177.728C226.357 177.419 225.957 177.264 225.397 177.264H224.733C224.035 177.264 223.533 177.419 223.229 177.728C222.931 178.037 222.781 178.544 222.781 179.248V183.592C222.781 183.869 222.643 184.008 222.365 184.008C222.083 184.008 221.941 183.869 221.941 183.592V176.856C221.941 176.579 222.083 176.44 222.365 176.44C222.643 176.44 222.781 176.579 222.781 176.856V177.48C223.016 177.101 223.293 176.832 223.613 176.672C223.939 176.507 224.349 176.424 224.845 176.424H225.397C225.957 176.424 226.405 176.523 226.741 176.72C227.083 176.912 227.352 177.229 227.549 177.672C227.784 177.229 228.072 176.912 228.413 176.72C228.755 176.523 229.2 176.424 229.749 176.424H230.413ZM244.132 176.424C244.991 176.424 245.604 176.643 245.972 177.08C246.345 177.517 246.532 178.24 246.532 179.248V183.592C246.532 183.869 246.393 184.008 246.116 184.008C245.833 184.008 245.692 183.869 245.692 183.592V179.248C245.692 178.544 245.572 178.037 245.332 177.728C245.092 177.419 244.692 177.264 244.132 177.264H243.468C242.769 177.264 242.268 177.419 241.964 177.728C241.665 178.037 241.516 178.544 241.516 179.248V183.592C241.516 183.869 241.377 184.008 241.1 184.008C240.817 184.008 240.676 183.869 240.676 183.592V179.248C240.676 178.544 240.556 178.037 240.316 177.728C240.076 177.419 239.676 177.264 239.116 177.264H238.452C237.753 177.264 237.252 177.419 236.948 177.728C236.649 178.037 236.5 178.544 236.5 179.248V183.592C236.5 183.869 236.361 184.008 236.084 184.008C235.801 184.008 235.66 183.869 235.66 183.592V176.856C235.66 176.579 235.801 176.44 236.084 176.44C236.361 176.44 236.5 176.579 236.5 176.856V177.48C236.735 177.101 237.012 176.832 237.332 176.672C237.657 176.507 238.068 176.424 238.564 176.424H239.116C239.676 176.424 240.124 176.523 240.46 176.72C240.801 176.912 241.071 177.229 241.268 177.672C241.503 177.229 241.791 176.912 242.132 176.72C242.473 176.523 242.919 176.424 243.468 176.424H244.132ZM253.634 174.984C253.266 174.984 253.082 174.795 253.082 174.416V174.056C253.082 173.688 253.266 173.504 253.634 173.504H253.994C254.352 173.504 254.53 173.688 254.53 174.056V174.416C254.53 174.795 254.352 174.984 253.994 174.984H253.634ZM253.818 184C253.536 184 253.394 183.859 253.394 183.576V176.856C253.394 176.579 253.536 176.44 253.818 176.44C254.096 176.44 254.234 176.579 254.234 176.856V183.576C254.234 183.859 254.096 184 253.818 184ZM269.71 176.424C270.569 176.424 271.182 176.643 271.55 177.08C271.924 177.517 272.11 178.24 272.11 179.248V183.592C272.11 183.869 271.972 184.008 271.694 184.008C271.412 184.008 271.27 183.869 271.27 183.592V179.248C271.27 178.544 271.15 178.037 270.91 177.728C270.67 177.419 270.27 177.264 269.71 177.264H269.046C268.348 177.264 267.846 177.419 267.542 177.728C267.244 178.037 267.094 178.544 267.094 179.248V183.592C267.094 183.869 266.956 184.008 266.678 184.008C266.396 184.008 266.254 183.869 266.254 183.592V179.248C266.254 178.544 266.134 178.037 265.894 177.728C265.654 177.419 265.254 177.264 264.694 177.264H264.03C263.332 177.264 262.83 177.419 262.526 177.728C262.228 178.037 262.078 178.544 262.078 179.248V183.592C262.078 183.869 261.94 184.008 261.662 184.008C261.38 184.008 261.238 183.869 261.238 183.592V176.856C261.238 176.579 261.38 176.44 261.662 176.44C261.94 176.44 262.078 176.579 262.078 176.856V177.48C262.313 177.101 262.59 176.832 262.91 176.672C263.236 176.507 263.646 176.424 264.142 176.424H264.694C265.254 176.424 265.702 176.523 266.038 176.72C266.38 176.912 266.649 177.229 266.846 177.672C267.081 177.229 267.369 176.912 267.71 176.72C268.052 176.523 268.497 176.424 269.046 176.424H269.71ZM275.197 174.984C274.829 174.984 274.645 174.795 274.645 174.416V174.056C274.645 173.688 274.829 173.504 275.197 173.504H275.557C275.914 173.504 276.093 173.688 276.093 174.056V174.416C276.093 174.795 275.914 174.984 275.557 174.984H275.197ZM275.381 184C275.098 184 274.957 183.859 274.957 183.576V176.856C274.957 176.579 275.098 176.44 275.381 176.44C275.658 176.44 275.797 176.579 275.797 176.856V183.576C275.797 183.859 275.658 184 275.381 184ZM280.441 183.984C279.785 183.984 279.284 183.845 278.937 183.568C278.59 183.285 278.382 182.856 278.313 182.28C278.297 182.141 278.326 182.035 278.401 181.96C278.476 181.88 278.585 181.84 278.729 181.84C278.862 181.84 278.961 181.875 279.025 181.944C279.094 182.013 279.14 182.117 279.161 182.256C279.209 182.587 279.329 182.819 279.521 182.952C279.718 183.08 280.025 183.144 280.441 183.144H283.065C283.561 183.144 283.902 183.051 284.089 182.864C284.276 182.677 284.369 182.336 284.369 181.84C284.369 181.339 284.276 180.995 284.089 180.808C283.902 180.621 283.561 180.528 283.065 180.528H280.473C279.78 180.528 279.262 180.363 278.921 180.032C278.585 179.696 278.417 179.181 278.417 178.488C278.417 177.779 278.585 177.259 278.921 176.928C279.257 176.592 279.774 176.424 280.473 176.424H282.985C284.19 176.424 284.86 176.957 284.993 178.024C285.014 178.163 284.985 178.272 284.905 178.352C284.83 178.427 284.724 178.464 284.585 178.464C284.452 178.464 284.35 178.429 284.281 178.36C284.217 178.291 284.172 178.189 284.145 178.056C284.108 177.757 283.998 177.552 283.817 177.44C283.641 177.323 283.364 177.264 282.985 177.264H280.473C280.009 177.264 279.689 177.349 279.513 177.52C279.342 177.691 279.257 178.013 279.257 178.488C279.257 178.941 279.345 179.256 279.521 179.432C279.697 179.603 280.014 179.688 280.473 179.688H283.065C283.801 179.688 284.342 179.864 284.689 180.216C285.036 180.563 285.209 181.104 285.209 181.84C285.209 182.571 285.036 183.112 284.689 183.464C284.342 183.811 283.801 183.984 283.065 183.984H280.441ZM289.379 183.984C288.723 183.984 288.221 183.845 287.875 183.568C287.528 183.285 287.32 182.856 287.251 182.28C287.235 182.141 287.264 182.035 287.339 181.96C287.413 181.88 287.523 181.84 287.667 181.84C287.8 181.84 287.899 181.875 287.963 181.944C288.032 182.013 288.077 182.117 288.099 182.256C288.147 182.587 288.267 182.819 288.459 182.952C288.656 183.08 288.963 183.144 289.379 183.144H292.003C292.499 183.144 292.84 183.051 293.027 182.864C293.213 182.677 293.307 182.336 293.307 181.84C293.307 181.339 293.213 180.995 293.027 180.808C292.84 180.621 292.499 180.528 292.003 180.528H289.411C288.717 180.528 288.2 180.363 287.859 180.032C287.523 179.696 287.355 179.181 287.355 178.488C287.355 177.779 287.523 177.259 287.859 176.928C288.195 176.592 288.712 176.424 289.411 176.424H291.923C293.128 176.424 293.797 176.957 293.931 178.024C293.952 178.163 293.923 178.272 293.843 178.352C293.768 178.427 293.661 178.464 293.523 178.464C293.389 178.464 293.288 178.429 293.219 178.36C293.155 178.291 293.109 178.189 293.083 178.056C293.045 177.757 292.936 177.552 292.755 177.44C292.579 177.323 292.301 177.264 291.923 177.264H289.411C288.947 177.264 288.627 177.349 288.451 177.52C288.28 177.691 288.195 178.013 288.195 178.488C288.195 178.941 288.283 179.256 288.459 179.432C288.635 179.603 288.952 179.688 289.411 179.688H292.003C292.739 179.688 293.28 179.864 293.627 180.216C293.973 180.563 294.147 181.104 294.147 181.84C294.147 182.571 293.973 183.112 293.627 183.464C293.28 183.811 292.739 183.984 292.003 183.984H289.379ZM302.332 184C302.081 184 301.918 183.885 301.844 183.656L299.588 177.008C299.497 176.736 299.585 176.557 299.852 176.472C300.113 176.392 300.286 176.48 300.372 176.736L302.564 183.16H302.228L304.324 176.856C304.398 176.632 304.558 176.52 304.804 176.52C305.038 176.52 305.19 176.635 305.26 176.864L307.22 183.144H306.868L309.172 176.736C309.278 176.464 309.46 176.376 309.716 176.472C309.982 176.573 310.068 176.755 309.972 177.016L307.5 183.656C307.414 183.885 307.249 184 307.004 184C306.732 184 306.561 183.885 306.492 183.656L304.676 177.84H304.836L302.836 183.656C302.793 183.789 302.726 183.88 302.636 183.928C302.545 183.976 302.444 184 302.332 184ZM312.303 184C312.02 184 311.879 183.859 311.879 183.576V173.32C311.879 173.043 312.02 172.904 312.303 172.904C312.58 172.904 312.719 173.043 312.719 173.32V177.624C313.225 176.835 314.143 176.44 315.471 176.44H315.919C316.916 176.44 317.644 176.672 318.103 177.136C318.567 177.595 318.799 178.323 318.799 179.32V183.576C318.799 183.859 318.66 184 318.383 184C318.1 184 317.959 183.859 317.959 183.576V179.32C317.959 178.557 317.807 178.027 317.503 177.728C317.204 177.429 316.676 177.28 315.919 177.28H315.471C314.644 177.28 313.993 177.411 313.519 177.672C313.044 177.933 312.777 178.341 312.719 178.896V183.576C312.719 183.859 312.58 184 312.303 184ZM321.884 174.984C321.516 174.984 321.332 174.795 321.332 174.416V174.056C321.332 173.688 321.516 173.504 321.884 173.504H322.244C322.602 173.504 322.78 173.688 322.78 174.056V174.416C322.78 174.795 322.602 174.984 322.244 174.984H321.884ZM322.068 184C321.786 184 321.644 183.859 321.644 183.576V176.856C321.644 176.579 321.786 176.44 322.068 176.44C322.346 176.44 322.484 176.579 322.484 176.856V183.576C322.484 183.859 322.346 184 322.068 184ZM327.129 183.984C326.473 183.984 325.971 183.845 325.625 183.568C325.278 183.285 325.07 182.856 325.001 182.28C324.985 182.141 325.014 182.035 325.089 181.96C325.163 181.88 325.273 181.84 325.417 181.84C325.55 181.84 325.649 181.875 325.713 181.944C325.782 182.013 325.827 182.117 325.849 182.256C325.897 182.587 326.017 182.819 326.209 182.952C326.406 183.08 326.713 183.144 327.129 183.144H329.753C330.249 183.144 330.59 183.051 330.777 182.864C330.963 182.677 331.057 182.336 331.057 181.84C331.057 181.339 330.963 180.995 330.777 180.808C330.59 180.621 330.249 180.528 329.753 180.528H327.161C326.467 180.528 325.95 180.363 325.609 180.032C325.273 179.696 325.105 179.181 325.105 178.488C325.105 177.779 325.273 177.259 325.609 176.928C325.945 176.592 326.462 176.424 327.161 176.424H329.673C330.878 176.424 331.547 176.957 331.681 178.024C331.702 178.163 331.673 178.272 331.593 178.352C331.518 178.427 331.411 178.464 331.273 178.464C331.139 178.464 331.038 178.429 330.969 178.36C330.905 178.291 330.859 178.189 330.833 178.056C330.795 177.757 330.686 177.552 330.505 177.44C330.329 177.323 330.051 177.264 329.673 177.264H327.161C326.697 177.264 326.377 177.349 326.201 177.52C326.03 177.691 325.945 178.013 325.945 178.488C325.945 178.941 326.033 179.256 326.209 179.432C326.385 179.603 326.702 179.688 327.161 179.688H329.753C330.489 179.688 331.03 179.864 331.377 180.216C331.723 180.563 331.897 181.104 331.897 181.84C331.897 182.571 331.723 183.112 331.377 183.464C331.03 183.811 330.489 183.984 329.753 183.984H327.129ZM334.834 184C334.551 184 334.41 183.859 334.41 183.576V173.32C334.41 173.043 334.551 172.904 334.834 172.904C335.111 172.904 335.25 173.043 335.25 173.32V179.968L339.314 176.48C339.517 176.299 339.711 176.312 339.898 176.52C340.079 176.728 340.066 176.925 339.858 177.112L336.914 179.648L340.114 183.28C340.301 183.488 340.287 183.685 340.074 183.872C339.871 184.053 339.677 184.04 339.49 183.832L336.266 180.2L335.25 181.072V183.576C335.25 183.859 335.111 184 334.834 184ZM342.378 180.544V181.128C342.378 181.88 342.527 182.408 342.826 182.712C343.13 183.011 343.663 183.16 344.426 183.16H345.738C346.41 183.16 346.898 183.075 347.202 182.904C347.511 182.728 347.695 182.427 347.754 182C347.775 181.867 347.818 181.765 347.882 181.696C347.951 181.627 348.055 181.592 348.194 181.592C348.332 181.592 348.436 181.632 348.506 181.712C348.58 181.787 348.61 181.893 348.594 182.032C348.524 182.704 348.255 183.2 347.786 183.52C347.316 183.84 346.634 184 345.738 184H344.426C343.428 184 342.698 183.771 342.234 183.312C341.77 182.848 341.538 182.12 341.538 181.128V179.32C341.538 178.312 341.77 177.579 342.234 177.12C342.698 176.656 343.428 176.429 344.426 176.44H345.738C346.735 176.44 347.463 176.672 347.922 177.136C348.386 177.595 348.618 178.323 348.618 179.32V180.12C348.618 180.403 348.479 180.544 348.202 180.544H342.378ZM344.426 177.28C343.663 177.269 343.13 177.416 342.826 177.72C342.527 178.019 342.378 178.552 342.378 179.32V179.704H347.778V179.32C347.778 178.557 347.628 178.027 347.33 177.728C347.031 177.429 346.5 177.28 345.738 177.28H344.426ZM353.298 187.2C352.6 187.2 352.082 187.032 351.746 186.696C351.416 186.36 351.25 185.837 351.25 185.128C351.25 184.851 351.389 184.712 351.666 184.712C351.949 184.712 352.09 184.851 352.09 185.128C352.09 185.608 352.176 185.933 352.346 186.104C352.517 186.275 352.834 186.36 353.298 186.36H356.066C356.536 186.36 356.856 186.275 357.026 186.104C357.197 185.933 357.282 185.608 357.282 185.128V182.928C356.978 183.328 356.597 183.608 356.138 183.768C355.68 183.928 355.144 184.008 354.53 184.008H354.082C353.101 184.008 352.384 183.781 351.93 183.328C351.477 182.875 351.25 182.163 351.25 181.192V176.848C351.25 176.565 351.389 176.424 351.666 176.424C351.949 176.424 352.09 176.565 352.09 176.848V181.192C352.09 181.933 352.234 182.448 352.522 182.736C352.816 183.024 353.336 183.168 354.082 183.168H354.53C355.464 183.168 356.154 183.005 356.602 182.68C357.056 182.349 357.282 181.853 357.282 181.192V176.848C357.282 176.565 357.421 176.424 357.698 176.424C357.981 176.424 358.122 176.565 358.122 176.848V185.128C358.122 185.837 357.954 186.36 357.618 186.696C357.288 187.032 356.77 187.2 356.066 187.2H353.298ZM365.425 181.56C365.147 181.56 365.009 181.421 365.009 181.144V173.304C365.009 173.027 365.147 172.888 365.425 172.888C365.707 172.888 365.849 173.027 365.849 173.304V181.144C365.849 181.421 365.707 181.56 365.425 181.56ZM365.273 184C364.963 184 364.809 183.843 364.809 183.528V183.224C364.809 182.92 364.963 182.768 365.273 182.768H365.569C365.873 182.768 366.025 182.92 366.025 183.224V183.528C366.025 183.843 365.873 184 365.569 184H365.273ZM368.987 181.56C368.71 181.56 368.571 181.421 368.571 181.144V173.304C368.571 173.027 368.71 172.888 368.987 172.888C369.27 172.888 369.411 173.027 369.411 173.304V181.144C369.411 181.421 369.27 181.56 368.987 181.56ZM368.835 184C368.526 184 368.371 183.843 368.371 183.528V183.224C368.371 182.92 368.526 182.768 368.835 182.768H369.131C369.435 182.768 369.587 182.92 369.587 183.224V183.528C369.587 183.843 369.435 184 369.131 184H368.835Z" fill="#333333"/>
<g filter="url(#filter0_d_9_76)">
<path d="M4 97H227.5H451V115H4V97Z" fill="#181818"/>
<circle cx="255.5" cy="108.5" r="2.5" fill="#BABABA"/>
<circle cx="185.5" cy="108.5" r="2.5" fill="#BABABA"/>
<path d="M252 126.5C252 127.881 250.881 129 249.5 129C248.119 129 247 127.881 247 126.5C247 125.119 248.119 124 249.5 124C250.881 124 252 125.119 252 126.5Z" fill="#BABABA"/>
<circle cx="220.5" cy="141.5" r="2.5" fill="#BABABA"/>
<circle cx="220.5" cy="71.5" r="2.5" fill="#BABABA"/>
<circle cx="190.5" cy="87.5" r="2.5" fill="#BABABA"/>
<circle cx="250.5" cy="87.5" r="2.5" fill="#BABABA"/>
<circle cx="237.5" cy="75.5" r="2.5" fill="#BABABA"/>
<circle cx="201.5" cy="76.5" r="2.5" fill="#BABABA"/>
<circle cx="201.5" cy="136.5" r="2.5" fill="#BABABA"/>
<circle cx="238.5" cy="136.5" r="2.5" fill="#BABABA"/>
<circle cx="189.5" cy="123.5" r="2.5" fill="#BABABA"/>
<circle cx="220.5" cy="106.5" r="35.5" fill="#C5C9C9"/>
<circle cx="221" cy="106" r="30" fill="#BABEBE"/>
<circle cx="221" cy="106" r="28" fill="#B0B5B5"/>
<circle cx="220.5" cy="106.5" r="25.5" fill="#A7ACAC"/>
<ellipse cx="221" cy="106" rx="24" ry="23" fill="#9CA1A1"/>
</g>
<ellipse cx="220.5" cy="107.5" rx="23.5" ry="22.5" fill="white"/>
<path d="M244 107.5C244 119.926 248 87 220.5 88.5C193 90 197 119.926 197 107.5C197 95.0736 207.521 85 220.5 85C233.479 85 244 95.0736 244 107.5Z" fill="#F5DF60"/>
<ellipse cx="221.5" cy="107.5" rx="10.5" ry="8.5" fill="black"/>
<ellipse cx="217.5" cy="104" rx="1.5" ry="1" fill="white"/>
<path d="M436.523 24H432.883C432.654 24 432.433 23.9221 432.256 23.7792C432.078 23.6362 431.954 23.4368 431.906 23.214L431.499 21.33C430.956 21.0921 430.441 20.7946 429.964 20.443L428.127 21.028C427.909 21.0973 427.674 21.0902 427.462 21.0078C427.249 20.9254 427.071 20.7727 426.957 20.575L425.133 17.424C425.02 17.2261 424.977 16.9958 425.012 16.7708C425.047 16.5457 425.158 16.3392 425.326 16.185L426.751 14.885C426.686 14.2961 426.686 13.7019 426.751 13.113L425.326 11.816C425.158 11.6618 425.047 11.4551 425.012 11.2298C424.977 11.0045 425.019 10.774 425.133 10.576L426.953 7.423C427.067 7.22532 427.245 7.07259 427.458 6.99019C427.67 6.90778 427.905 6.90066 428.123 6.97L429.96 7.555C430.204 7.375 430.458 7.207 430.72 7.055C430.973 6.913 431.233 6.784 431.499 6.669L431.907 4.787C431.955 4.5642 432.078 4.36469 432.256 4.22155C432.433 4.07841 432.654 4.00024 432.883 4H436.523C436.751 4.00024 436.972 4.07841 437.149 4.22155C437.327 4.36469 437.45 4.5642 437.499 4.787L437.911 6.67C438.453 6.90927 438.967 7.20668 439.446 7.557L441.284 6.972C441.501 6.90292 441.735 6.91017 441.948 6.99256C442.16 7.07495 442.339 7.22753 442.453 7.425L444.273 10.578C444.505 10.985 444.425 11.5 444.08 11.817L442.655 13.117C442.719 13.7059 442.719 14.3001 442.655 14.889L444.08 16.189C444.425 16.507 444.505 17.021 444.273 17.428L442.453 20.581C442.338 20.7787 442.16 20.9314 441.947 21.0138C441.735 21.0962 441.5 21.1033 441.283 21.034L439.446 20.449C438.969 20.8003 438.454 21.0975 437.912 21.335L437.499 23.214C437.45 23.4366 437.326 23.6359 437.149 23.7788C436.971 23.9218 436.75 23.9998 436.523 24ZM434.699 10C433.638 10 432.62 10.4214 431.87 11.1716C431.12 11.9217 430.699 12.9391 430.699 14C430.699 15.0609 431.12 16.0783 431.87 16.8284C432.62 17.5786 433.638 18 434.699 18C435.759 18 436.777 17.5786 437.527 16.8284C438.277 16.0783 438.699 15.0609 438.699 14C438.699 12.9391 438.277 11.9217 437.527 11.1716C436.777 10.4214 435.759 10 434.699 10Z" fill="#333333"/>
<defs>
<filter id="filter0_d_9_76" x="0" y="69" width="455" height="83" filterUnits="userSpaceOnUse" color-interpolation-filters="sRGB">
<feFlood flood-opacity="0" result="BackgroundImageFix"/>
<feColorMatrix in="SourceAlpha" type="matrix" values="0 0 0 0 0 0 0 0 0 0 0 0 0 0 0 0 0 0 127 0" result="hardAlpha"/>
<feOffset dy="4"/>
<feGaussianBlur stdDeviation="2"/>
<feComposite in2="hardAlpha" operator="out"/>
<feColorMatrix type="matrix" values="0 0 0 0 0 0 0 0 0 0 0 0 0 0 0 0 0 0 0.25 0"/>
<feBlend mode="normal" in2="BackgroundImageFix" result="effect1_dropShadow_9_76"/>
<feBlend mode="normal" in="SourceGraphic" in2="effect1_dropShadow_9_76" result="shape"/>
</filter>
</defs>
</svg>
